<?xml version="1.0" standalone="no"?>
<!DOCTYPE svg PUBLIC "-//W3C//DTD SVG 20010904//EN"
 "http://www.w3.org/TR/2001/REC-SVG-20010904/DTD/svg10.dtd">
<svg version="1.0" xmlns="http://www.w3.org/2000/svg"
 width="366.000000pt" height="113.000000pt" viewBox="0 0 366.000000 113.000000"
 preserveAspectRatio="xMidYMid meet">
<metadata>
Created by potrace 1.16, written by Peter Selinger 2001-2019
</metadata>
<g transform="translate(0.000000,113.000000) scale(0.100000,-0.100000)"
fill="#000000" stroke="none">
<path d="M1093 1062 c-104 -37 -162 -106 -182 -216 -7 -36 -11 -207 -11 -423
l0 -363 50 0 50 0 0 392 c0 380 1 393 21 436 63 129 252 128 322 -1 22 -42 22
-45 19 -434 l-2 -393 50 0 51 0 -3 403 c-3 399 -3 402 -27 455 -56 124 -210
190 -338 144z"/>
<path d="M2615 1071 c-87 -23 -150 -76 -187 -156 -23 -49 -23 -57 -26 -453
l-3 -402 45 0 46 0 0 368 c0 216 5 385 11 412 20 89 85 142 174 144 62 0 120
-30 155 -81 l25 -37 3 -403 3 -403 49 0 50 0 0 358 c0 455 -7 498 -87 578 -63
64 -177 97 -258 75z"/>
<path d="M3283 1069 c-125 -23 -213 -129 -213 -258 1 -104 59 -168 233 -257
128 -66 179 -109 203 -171 43 -113 -52 -236 -181 -235 -57 0 -98 17 -132 54
-26 27 -53 88 -53 118 0 17 -6 20 -45 20 -43 0 -45 -1 -45 -30 0 -86 68 -184
160 -232 62 -32 176 -32 237 0 108 57 163 141 163 251 0 124 -58 193 -241 287
-176 90 -221 144 -199 238 18 79 78 126 160 126 77 0 150 -65 150 -132 0 -27
2 -28 51 -28 l52 0 -7 41 c-22 137 -156 232 -293 208z"/>
<path d="M60 564 l0 -505 173 3 c160 3 175 5 221 28 27 14 66 45 87 69 63 71
69 106 69 412 0 308 -7 344 -81 418 -67 67 -122 81 -309 81 l-160 0 0 -506z
m345 397 c46 -20 91 -69 103 -109 4 -15 7 -144 7 -287 0 -143 -3 -272 -7 -287
-12 -40 -57 -89 -103 -109 -31 -14 -65 -19 -147 -19 l-108 0 0 415 0 415 108
0 c82 0 116 -5 147 -19z"/>
<path d="M710 565 l0 -505 45 0 45 0 0 505 0 505 -45 0 -45 0 0 -505z"/>
<path d="M1560 564 l0 -506 173 4 c171 3 172 3 227 34 32 18 70 51 92 79 53
70 61 128 56 435 -3 244 -4 257 -26 300 -35 67 -89 117 -149 140 -46 17 -78
20 -213 20 l-160 0 0 -506z m345 397 c46 -21 79 -54 94 -94 7 -18 11 -133 11
-305 0 -315 -1 -322 -79 -377 -41 -29 -48 -30 -162 -33 l-119 -4 0 416 0 416
108 0 c83 0 116 -5 147 -19z"/>
<path d="M2210 565 l0 -505 45 0 45 0 0 505 0 505 -45 0 -45 0 0 -505z"/>
</g>
</svg>
