<svg class="diagram" xmlns="http://www.w3.org/2000/svg" version="1.1" style="stroke-linecap: round; stroke-width: 8px; break-inside: avoid; stroke: black; fill: none;" viewBox="0 0 200.2 56.2">
  <g transform="translate(4.1,4.1)">
    <path d="M 0,16 L 0,48"></path>
    <path d="M 32,16 L 32,32"></path>
    <path d="M 64,0 L 64,32"></path>
    <path d="M 96,0 L 96,32"></path>
    <path d="M 128,16 L 128,32"></path>
    <path d="M 160,16 L 160,48"></path>
    <path d="M 192,16 L 192,48"></path>
    <path d="M 72,48 L 80,48"></path>
    <path d="M 16,0 C -0.8,0 0,16 0,16"></path>
    <path d="M 16,0 C 32.8,0 32,16 32,16"></path>
    <path d="M 144,0 C 127.2,0 128,16 128,16"></path>
    <path d="M 144,0 C 160.8,0 160,16 160,16"></path>
    <path d="M 176,0 C 159.2,0 160,16 160,16"></path>
    <path d="M 176,0 C 192.8,0 192,16 192,16"></path>
    <path d="M 80,16 C 63.2,16 64,0 64,0"></path>
    <path d="M 80,16 C 96.8,16 96,0 96,0"></path>
    <path d="M 48,48 C 31.2,48 32,32 32,32"></path>
    <path d="M 48,48 C 64.8,48 64,32 64,32"></path>
    <path d="M 80,48 C 96.8,48 96,32 96,32"></path>
    <path d="M 112,48 C 95.2,48 96,32 96,32"></path>
    <path d="M 112,48 C 128.8,48 128,32 128,32"></path>
  </g>
</svg>
